<svg width="617" height="464" viewBox="0 0 617 464" fill="none" xmlns="http://www.w3.org/2000/svg">
<g clip-path="url(#clip0_6778_80803)">
<rect x="0.6875" width="616" height="464" fill="#5A63FF"/>
<path fill-rule="evenodd" clip-rule="evenodd" d="M211.924 0H0.685547V155H212.686V154.663C255.045 154.255 289.258 119.789 289.258 77.3333C289.258 34.8773 255.045 0.412066 212.686 0.00366743V0H211.924Z" fill="white"/>
<path fill-rule="evenodd" clip-rule="evenodd" d="M192.116 309C189.736 309.221 187.325 309.333 184.888 309.333C142.178 309.333 107.555 274.71 107.555 232C107.555 189.29 142.178 154.667 184.888 154.667C187.326 154.667 189.737 154.779 192.117 155H616.689V309H192.116Z" fill="#ADB1FF"/>
<path fill-rule="evenodd" clip-rule="evenodd" d="M0.688721 309H495.689V309.339C537.673 309.839 571.555 344.268 571.555 386.667C571.555 429.065 537.673 463.495 495.689 463.995V464H494.847C494.818 464 494.79 464 494.762 464C494.734 464 494.706 464 494.678 464H0.688721V309Z" fill="#757DFF"/>
<g clip-path="url(#clip1_6778_80803)">
<rect width="85" height="84" transform="translate(169.312 35.3914)" fill="white"/>
<path fill-rule="evenodd" clip-rule="evenodd" d="M199.518 54.5701L209.285 57.155L211.468 49.1139L216.351 50.4235L214.253 58.1324L218.237 59.1901L220.339 51.3972L225.307 52.7106L223.167 60.5455C223.167 60.5455 231.281 62.321 233.189 68.8424C235.098 75.3639 228.993 78.7888 227.108 78.9186C227.108 78.9186 234.217 82.7712 231.775 90.3503C229.333 97.9293 221.838 99.2848 213.952 97.5475L211.812 105.673L206.843 104.359L209.026 96.3601L205.085 95.2986L202.902 103.355L197.972 102.045L200.159 94.0272L190.133 91.3544L192.66 85.8104C192.66 85.8104 195.488 86.5741 196.558 86.8261C197.628 87.0781 198.316 85.9784 198.617 84.8788C198.919 83.7792 203.458 65.555 203.887 64.0544C204.316 62.5539 204.142 61.3817 202.342 60.9197C200.541 60.4577 198.092 59.7361 198.092 59.7361L199.518 54.5701ZM209.37 78.7048L206.665 89.3308C206.665 89.3308 220.076 94.115 221.791 87.3835C223.507 80.6521 209.37 78.7048 209.37 78.7048ZM210.614 73.6648L213.268 63.9284C213.268 63.9284 224.751 65.9597 223.337 71.3777C221.923 76.7957 215.154 74.7186 210.614 73.6648Z" fill="#757DFF"/>
</g>
<g clip-path="url(#clip2_6778_80803)">
<path fill-rule="evenodd" clip-rule="evenodd" d="M226.171 241.598C226.171 249.192 220.007 254.233 210.906 254.992V261.827H204.672V254.924C198.516 254.23 192.667 251.866 187.758 248.087L192.344 241.805C196.43 244.981 200.298 247.053 204.958 247.744V234.211C194.495 231.587 189.622 227.79 189.622 219.989C189.622 212.534 195.712 207.425 204.672 206.733V202.729H210.906V206.872C215.779 207.413 220.425 209.223 224.381 212.12L220.365 218.609C217.212 216.331 213.988 214.88 210.62 214.191V227.308C221.514 229.932 226.171 234.143 226.171 241.598ZM204.955 225.857V213.707C200.443 214.052 198.079 216.47 198.079 219.507C198.079 222.403 199.438 224.27 204.958 225.86L204.955 225.857ZM217.714 242.079C217.714 238.977 216.207 237.112 210.62 235.523V248.022C215.135 247.673 217.714 245.395 217.714 242.082V242.079Z" fill="white"/>
</g>
<path d="M480.047 354V378.393L500.664 387.605L480.047 354Z" fill="white" fill-opacity="0.602"/>
<path d="M480.049 354L459.43 387.605L480.049 378.393V354Z" fill="white"/>
<path d="M480.047 403.413V419.987L500.677 391.445L480.047 403.413Z" fill="white" fill-opacity="0.602"/>
<path d="M480.049 419.987V403.41L459.43 391.445L480.049 419.987Z" fill="white"/>
<path d="M480.047 399.576L500.664 387.605L480.047 378.398V399.576Z" fill="white" fill-opacity="0.2"/>
<path d="M459.43 387.605L480.049 399.576V378.398L459.43 387.605Z" fill="white" fill-opacity="0.602"/>
</g>
<defs>
<clipPath id="clip0_6778_80803">
<rect x="0.6875" width="616" height="464" rx="60" fill="white"/>
</clipPath>
<clipPath id="clip1_6778_80803">
<rect width="85" height="84" fill="white" transform="translate(169.312 35.3914)"/>
</clipPath>
<clipPath id="clip2_6778_80803">
<rect width="94.5563" height="94.5563" fill="white" transform="translate(159.688 185)"/>
</clipPath>
</defs>
</svg>
